<?xml version="1.0" standalone="no"?>
<!DOCTYPE svg PUBLIC "-//W3C//DTD SVG 20010904//EN"
 "http://www.w3.org/TR/2001/REC-SVG-20010904/DTD/svg10.dtd">
<svg version="1.0" xmlns="http://www.w3.org/2000/svg"
 width="547.000000pt" height="547.000000pt" viewBox="0 0 547.000000 547.000000"
 preserveAspectRatio="xMidYMid meet">
<metadata>
Created by potrace 1.11, written by Peter Selinger 2001-2013
</metadata>
<g transform="translate(0.000000,547.000000) scale(0.100000,-0.100000)"
fill="#000000" stroke="none">
<path d="M0 2735 l0 -2735 2735 0 2735 0 0 2735 0 2735 -2735 0 -2735 0 0
-2735z m928 1868 c64 -86 130 -174 146 -197 144 -201 272 -378 299 -412 18
-23 151 -202 295 -398 145 -196 268 -356 273 -356 4 0 76 90 158 200 l150 200
-29 83 c-33 95 -350 1030 -350 1034 0 2 398 3 885 3 487 0 885 -3 885 -7 0 -8
-293 -399 -385 -513 -77 -96 -132 -170 -178 -242 l-38 -56 258 -351 c142 -193
260 -350 263 -351 3 0 14 13 25 29 29 42 360 485 740 992 110 146 236 318 280
382 l80 116 133 1 c72 0 132 -3 132 -7 0 -4 -112 -156 -248 -337 -137 -182
-329 -441 -427 -576 -98 -135 -258 -353 -355 -485 -97 -132 -186 -255 -198
-272 l-23 -33 58 -76 c32 -42 65 -86 73 -98 8 -12 155 -208 327 -437 297 -397
314 -417 350 -424 21 -4 45 -11 55 -16 15 -8 15 -11 1 -41 -15 -28 -15 -34 -1
-58 11 -20 694 -954 751 -1027 7 -10 -51 -13 -285 -13 l-295 0 -146 198 c-81
108 -187 252 -236 319 -49 67 -95 129 -102 137 -8 9 -30 38 -49 66 -39 56
-502 689 -538 736 -13 16 -73 98 -133 182 -61 83 -112 152 -114 152 -3 0 -55
-71 -172 -232 -35 -48 -63 -93 -63 -100 1 -14 63 -193 329 -950 94 -267 171
-491 171 -497 0 -8 -270 -11 -950 -11 -522 0 -950 2 -950 5 0 3 147 203 326
446 284 385 324 442 312 457 -7 9 -18 23 -25 32 -6 8 -114 155 -238 325 -125
171 -232 315 -238 322 -9 8 -76 -75 -282 -354 -453 -612 -533 -721 -724 -987
l-185 -256 -268 0 c-147 0 -268 3 -268 8 1 4 86 120 190 257 155 205 383 513
705 951 22 30 152 206 289 392 137 185 249 343 250 350 1 7 -127 186 -284 397
-283 380 -285 383 -326 389 -40 7 -93 35 -66 36 7 0 11 4 7 10 -3 5 0 18 7 29
10 17 7 27 -25 73 -50 73 -270 369 -529 714 -120 159 -218 292 -218 297 0 4
140 7 310 7 l310 0 118 -157z m1046 -808 c3 -8 1 -15 -4 -15 -6 0 -10 7 -10
15 0 8 2 15 4 15 2 0 6 -7 10 -15z m2451 -64 c-3 -6 -11 -11 -16 -11 -5 0 -4
6 3 14 14 16 24 13 13 -3z m-3715 -28 c0 -18 -25 -16 -40 2 -11 13 -8 15 14
13 14 -1 26 -8 26 -15z m189 1 c1 -1 0 -7 -4 -13 -7 -13 -85 -15 -85 -3 0 22
68 34 89 16z m-429 -93 c0 -16 -19 -23 -40 -16 -30 10 -24 25 10 25 17 0 30
-4 30 -9z m2990 -131 c0 -5 -4 -10 -10 -10 -5 0 -10 5 -10 10 0 6 5 10 10 10
6 0 10 -4 10 -10z m570 -120 c0 -5 -7 -7 -15 -4 -8 4 -15 8 -15 10 0 2 7 4 15
4 8 0 15 -4 15 -10z m113 -22 c-13 -12 -25 -19 -29 -15 -10 10 16 37 34 37 13
0 12 -4 -5 -22z m-3633 -38 c0 -5 -12 -10 -27 -11 -25 -1 -26 -2 -6 -7 21 -7
21 -7 3 -29 -19 -24 -45 -30 -55 -13 -6 10 13 50 30 62 15 11 55 10 55 -2z
m83 -35 c9 -4 17 -11 17 -16 0 -16 -34 -9 -60 11 l-25 20 25 -3 c14 -2 33 -7
43 -12z m4800 -102 c-7 -2 -19 -2 -25 0 -7 3 -2 5 12 5 14 0 19 -2 13 -5z
m-1163 -67 c0 -2 -7 -9 -15 -16 -13 -11 -14 -10 -9 4 5 14 24 23 24 12z
m-3370 -80 c0 -3 -4 -8 -10 -11 -5 -3 -10 -1 -10 4 0 6 5 11 10 11 6 0 10 -2
10 -4z m4155 -176 c-3 -5 -11 -10 -16 -10 -6 0 -7 5 -4 10 3 6 11 10 16 10 6
0 7 -4 4 -10z m-525 -160 c0 -5 -9 -10 -21 -10 -11 0 -17 5 -14 10 3 6 13 10
21 10 8 0 14 -4 14 -10z m-350 -39 c0 -10 -6 -24 -13 -30 -11 -8 -19 -5 -35
12 -26 27 -20 37 20 37 21 0 28 -5 28 -19z m528 -31 c6 0 12 -5 12 -11 0 -6
-7 -8 -16 -5 -8 3 -13 2 -10 -3 11 -17 -18 -30 -37 -16 -24 17 -12 49 17 41
11 -3 27 -6 34 -6z m417 -40 c3 -5 -1 -10 -10 -10 -9 0 -13 5 -10 10 3 6 8 10
10 10 2 0 7 -4 10 -10z m-4932 -127 c-7 -2 -19 -2 -25 0 -7 3 -2 5 12 5 14 0
19 -2 13 -5z m5107 -35 c0 -27 -17 -30 -39 -6 -32 33 -28 49 9 35 17 -7 30
-19 30 -29z m-163 -43 c9 -25 -4 -29 -17 -6 -7 15 -7 21 0 21 6 0 13 -7 17
-15z m-62 -55 c3 -5 -1 -10 -9 -10 -9 0 -16 5 -16 10 0 6 4 10 9 10 6 0 13 -4
16 -10z m59 -296 c22 -9 10 -24 -20 -24 -23 0 -31 10 -17 23 8 9 17 9 37 1z
m-384 -92 c0 -12 -41 -29 -73 -31 -25 -1 -26 1 -17 19 8 15 21 20 50 20 22 0
40 -4 40 -8z m137 -19 c3 -7 -4 -11 -16 -10 -12 1 -21 7 -21 15 0 16 32 12 37
-5z m-1287 -88 c0 -8 -2 -15 -4 -15 -2 0 -6 7 -10 15 -3 8 -1 15 4 15 6 0 10
-7 10 -15z"/>
<path d="M2760 3539 c0 -3 23 -73 51 -155 28 -82 101 -293 160 -469 60 -176
112 -326 114 -334 5 -14 195 230 195 249 0 5 -95 139 -212 297 -116 158 -225
308 -242 332 -40 57 -65 88 -66 80z"/>
<path d="M2307 3005 c-63 -86 -96 -139 -91 -147 13 -21 519 -705 603 -815 l79
-103 47 71 c33 49 45 76 41 92 -7 31 -9 234 -1 282 l6 40 -31 -35 c-16 -19
-67 -83 -113 -141 -45 -59 -85 -105 -88 -103 -3 2 -82 226 -174 499 -92 272
-171 495 -174 495 -3 0 -50 -61 -104 -135z"/>
</g>
</svg>
